<?xml version="1.0" standalone="no"?>
<!DOCTYPE svg PUBLIC "-//W3C//DTD SVG 20010904//EN"
 "http://www.w3.org/TR/2001/REC-SVG-20010904/DTD/svg10.dtd">
<svg version="1.0" xmlns="http://www.w3.org/2000/svg"
 width="180.000000pt" height="180.000000pt" viewBox="0 0 180.000000 180.000000"
 preserveAspectRatio="xMidYMid meet">
<metadata>
Created by potrace 1.11, written by Peter Selinger 2001-2013
</metadata>
<g transform="translate(0.000000,180.000000) scale(0.100000,-0.100000)"
fill="#000000" stroke="none">
<path d="M294 1786 c-6 -6 -32 -29 -57 -50 l-45 -39 22 -22 c11 -12 41 -46 66
-75 25 -29 50 -58 55 -64 6 -6 26 -31 45 -56 19 -25 39 -48 45 -52 6 -5 6 -8
0 -8 -6 0 -6 -3 1 -8 19 -12 74 -94 69 -102 -3 -4 7 -10 20 -13 14 -2 24 -2
21 0 -2 3 9 17 25 32 16 16 29 36 29 45 0 10 4 15 8 12 19 -12 3 56 -21 93
-15 23 -27 43 -27 46 0 3 -8 13 -17 24 -10 10 -28 31 -40 47 -12 16 -42 51
-67 77 -24 27 -47 55 -50 63 -3 8 -10 14 -16 14 -6 0 -21 11 -33 24 -16 17
-25 21 -33 12z"/>
<path d="M875 1776 c2 -14 6 -30 10 -35 3 -6 1 -11 -6 -11 -7 0 -8 -4 -2 -12
11 -15 11 -128 0 -145 -4 -6 -4 -14 1 -17 10 -6 10 -276 -1 -292 -3 -7 -18
-14 -32 -16 -13 -3 -22 -2 -20 3 3 4 -8 4 -24 -1 -19 -5 -33 -4 -41 3 -10 9
-11 9 -6 0 5 -8 -2 -12 -21 -12 -38 1 -132 -7 -288 -26 -33 -4 -66 -8 -72 -8
-7 0 -13 -3 -13 -7 0 -3 -10 -6 -22 -7 -35 -1 -101 -10 -118 -17 -8 -3 -30 -8
-47 -10 -51 -5 -111 -58 -102 -88 0 -2 -4 -15 -10 -30 -13 -33 10 -63 37 -50
47 23 54 3 38 -108 -10 -68 -18 -151 -19 -187 -1 -18 -5 -33 -10 -33 -5 0 -6
-8 -3 -17 4 -9 1 -20 -6 -25 -8 -5 -9 -8 -2 -8 6 0 10 -12 8 -27 -5 -31 -13
-153 -19 -278 -2 -44 -4 -80 -5 -80 -1 0 -3 -53 -5 -117 l-4 -118 83 0 82 0 2
124 c2 68 5 134 7 146 2 12 7 72 10 133 7 153 13 237 20 267 3 14 8 70 11 124
3 55 7 103 9 107 3 4 8 35 11 70 3 35 10 68 15 74 5 5 9 6 9 3 0 -4 21 -1 47
7 27 7 83 16 125 18 43 3 81 8 86 11 4 2 64 7 132 11 69 3 145 8 170 11 25 3
160 6 300 7 299 3 346 -4 396 -60 18 -20 31 -43 29 -52 -1 -9 2 -27 7 -40 17
-46 33 -340 33 -606 0 -251 -4 -265 -78 -279 -29 -6 -87 -6 -148 0 -113 10
-125 5 -114 -46 l7 -30 217 0 217 0 22 25 c22 25 22 27 22 475 0 471 -3 517
-45 600 -25 50 -83 107 -130 129 -16 7 -40 18 -53 24 -13 6 -122 11 -270 12
l-247 1 -2 214 c-1 118 -5 239 -8 268 l-6 52 -83 0 c-82 0 -83 0 -81 -24z"/>
<path d="M1502 1723 c-78 -86 -93 -103 -137 -158 -16 -20 -35 -42 -41 -49 -23
-25 -41 -62 -39 -83 2 -13 3 -29 4 -37 2 -22 79 -96 95 -90 7 3 31 30 52 61
21 31 43 61 49 67 6 6 26 31 45 56 19 25 44 55 55 67 78 85 125 143 125 157 0
17 -93 86 -117 86 -12 0 -48 -31 -91 -77z"/>
<path d="M841 878 c-9 -3 -46 -9 -82 -13 -35 -3 -77 -10 -94 -15 -16 -5 -49
-14 -72 -21 -53 -15 -79 -42 -94 -100 -15 -54 -8 -79 22 -79 20 0 21 -3 15
-67 -3 -38 -9 -88 -12 -113 -4 -25 -7 -94 -8 -155 -1 -104 0 -110 19 -110 11
0 25 3 30 7 6 4 42 10 80 13 117 9 154 13 165 20 5 3 138 6 294 7 202 0 288 3
294 12 10 12 9 60 -2 176 -3 41 -8 102 -11 135 -11 169 -60 258 -165 297 -36
14 -76 17 -203 15 -87 -1 -166 -5 -176 -9z m346 -164 c13 -14 23 -28 24 -32 0
-4 2 -14 3 -22 2 -8 6 -49 10 -90 3 -41 9 -95 12 -120 l6 -45 -79 0 c-110 0
-379 -13 -436 -21 l-48 -7 6 79 c4 43 9 82 11 85 2 4 7 40 10 81 4 40 10 77
14 81 4 4 20 10 36 12 16 2 45 7 64 10 59 11 211 20 279 17 54 -3 69 -8 88
-28z"/>
</g>
</svg>
